<svg viewBox="0 0 64 64" xmlns="http://www.w3.org/2000/svg"><path d="m58.11 23.83-1.53-1.28a3 3 0 0 0-2.19-.69 2.93 2.93 0 0 0-2 1.06l-1.93 2.29L48 28.1v-9.29A3 3 0 0 0 50 16v-6a3 3 0 0 0-3-3h-3V5a3 3 0 0 0-6 0v2H17V5a3 3 0 0 0-6 0v2H7a3 3 0 0 0-3 3v6a3 3 0 0 0 2 2.81V57a5 5 0 0 0 5 5h32a5 5 0 0 0 5-5V40.55l10.48-12.49a3 3 0 0 0-.37-4.23ZM40 5a1 1 0 0 1 2 0v6a1 1 0 0 1-2 0ZM13 5a1 1 0 0 1 2 0v6a1 1 0 0 1-2 0Zm33 52a3 3 0 0 1-3 3H11a3 3 0 0 1-3-3V19h38v11.49L35.64 42.83a.89.89 0 0 0-.19.39l-1.56 6.53a1 1 0 0 0 .33 1 1.05 1.05 0 0 0 .65.23 1.14 1.14 0 0 0 .4-.08l6.15-2.67a.93.93 0 0 0 .36-.27l4.23-5Zm-5.12-11.08-3.07-2.57 13.5-16.09 3.07 2.58Z" fill="#d1cfcf" class="fill-000000"></path><path d="M14 27h26a1 1 0 0 0 0-2H14a1 1 0 0 0 0 2ZM14 35h24a1 1 0 0 0 0-2H14a1 1 0 0 0 0 2ZM32 41H14a1 1 0 0 0 0 2h18a1 1 0 0 0 0-2ZM30 49H14a1 1 0 0 0 0 2h16a1 1 0 0 0 0-2Z" fill="#d1cfcf" class="fill-000000"></path></svg>