<svg id="Layer_1" version="1.1" viewBox="0 0 62 62" xml:space="preserve" xmlns="http://www.w3.org/2000/svg" enable-background="new 0 0 62 62"><path d="M59.5 4.5v36.96L41.46 59.5H4.5c-1.1 0-2-.9-2-2v-53c0-1.1.9-2 2-2h53c1.1 0 2 .9 2 2z" fill="#241d1d" class="fill-f4f4f4"></path><path d="M41.46 62H4.5C2.02 62 0 59.98 0 57.5v-53C0 2.02 2.02 0 4.5 0h53C59.98 0 62 2.02 62 4.5v36.96c0 .66-.26 1.3-.73 1.77L43.23 61.27c-.47.47-1.11.73-1.77.73zM5 57h35.42L57 40.42V5H5v52zm54.5-15.54z" fill="#d3d6e0" class="fill-76777a"></path><path d="M2.5 2.5h57v13.57h-57z" fill="#bfbab4" class="fill-ffc56d"></path><path d="M59.5 18.57h-57a2.5 2.5 0 0 1-2.5-2.5V4.5C0 2.02 2.02 0 4.5 0h53C59.98 0 62 2.02 62 4.5v11.57a2.5 2.5 0 0 1-2.5 2.5zm-54.5-5h52V5H5v8.57z" fill="#000000" class="fill-ff9e18"></path><path d="M2.5 18.57a2.5 2.5 0 0 1-2.5-2.5V4.5C0 2.02 2.02 0 4.5 0h19.22a2.5 2.5 0 0 1 0 5H5v11.07a2.5 2.5 0 0 1-2.5 2.5zM45.17 33.42H16.83a2.5 2.5 0 0 1 0-5h28.35c1.38 0 2.5 1.12 2.5 2.5s-1.12 2.5-2.51 2.5zM45.17 45.42H16.83a2.5 2.5 0 0 1 0-5h28.35c1.38 0 2.5 1.12 2.5 2.5s-1.12 2.5-2.51 2.5z" fill="#000000" class="fill-fd4a5c"></path><path d="M41.46 59.5V43.46c0-1.1.9-2 2-2H59.5L41.46 59.5z" fill="#241d1d" class="fill-f4f4f4"></path><path d="M41.46 62c-.32 0-.65-.06-.96-.19-.93-.39-1.54-1.3-1.54-2.31V43.46c0-2.48 2.02-4.5 4.5-4.5H59.5a2.495 2.495 0 0 1 1.77 4.26L43.23 61.27c-.48.48-1.12.73-1.77.73zm2.5-18.04v9.5l9.5-9.5h-9.5z" fill="#d3d6e0" class="fill-76777a"></path></svg>