<svg viewBox="0 0 512 512" xmlns="http://www.w3.org/2000/svg"><path d="M384.83 203.66h-5.51a123.68 123.68 0 0 0-246.63 0h-5.52a26 26 0 0 0-26 26v165.1a26 26 0 0 0 26 26h257.66a26 26 0 0 0 26-26V229.63a26 26 0 0 0-26-25.97ZM256 112.19a101.14 101.14 0 0 1 100.55 91.47h-201.1A101.14 101.14 0 0 1 256 112.19Zm132.13 282.54a3.3 3.3 0 0 1-3.3 3.3H127.17a3.3 3.3 0 0 1-3.3-3.3v-165.1a3.3 3.3 0 0 1 3.3-3.29h257.66a3.3 3.3 0 0 1 3.3 3.29Z" fill="#baafaf" class="fill-262626"></path><path d="M255.61 250.81a40.88 40.88 0 0 0-11 80.27v29a11.34 11.34 0 1 0 22.68 0v-29.22a40.89 40.89 0 0 0-11.73-80.05Zm0 59.09a18.21 18.21 0 1 1 18.21-18.2 18.22 18.22 0 0 1-18.21 18.2Z" fill="#baafaf" class="fill-262626"></path></svg>